<svg xmlns="http://www.w3.org/2000/svg" viewBox="0 0 1219.58 360"><g id="Camada_2" data-name="Camada 2"><g id="Camada_1-2" data-name="Camada 1"><path d="M152.45,0c-19.88,0-40.84,16.12-46.81,36L84,108c-6,19.88,5.31,36,25.2,36s40.84-16.12,46.8-36l21.62-72C183.61,16.12,172.33,0,152.45,0Z"/><path d="M465.64,36h-72c-19.88,0-40.84,16.12-46.81,36s5.31,36,25.19,36h72c19.89,0,40.84-16.12,46.81-36S485.52,36,465.64,36Z"/><path d="M472.79,252C452.91,252,432,268.12,426,288l-10.8,36c-6,19.88,5.31,36,25.19,36s40.84-16.12,46.81-36L498,288C504,268.12,492.67,252,472.79,252Z"/><path d="M796.79,252C776.91,252,756,268.12,750,288l-10.8,36c-6,19.88,5.31,36,25.19,36s40.84-16.12,46.81-36L822,288C828,268.12,816.67,252,796.79,252Z"/><path d="M1192.79,252c-19.88,0-40.84,16.12-46.81,36l-10.8,36c-6,19.88,5.31,36,25.19,36s40.84-16.12,46.81-36l10.8-36C1224,268.12,1212.67,252,1192.79,252Z"/><path d="M1160.45,0h-144c-19.88,0-40.84,16.12-46.81,36L926.41,180c-6,19.88,5.31,36,25.19,36s40.84-16.12,46.81-36L1020,108c6-19.88,26.93-36,46.81-36h72c19.88,0,40.84-16.12,46.81-36S1180.33,0,1160.45,0Z"/><path d="M1117.22,144c-19.89,0-40.84,16.12-46.81,36l-21.62,72c-6,19.88-26.92,36-46.81,36H930c-19.88,0-40.84,16.12-46.8,36s5.31,36,25.19,36h144c19.88,0,40.84-16.12,46.81-36l43.23-144C1148.38,160.12,1137.1,144,1117.22,144Z"/><path d="M908.45,0c-19.88,0-40.84,16.12-46.81,36L840,108c-6,19.88-26.92,36-46.8,36H716.39c-3-10.76-12.45-18-25.77-18S663.5,133.24,654,144h-4.82c-19.89,0-40.84,16.12-46.81,36s5.31,36,25.19,36L595.18,324c-6,19.88,5.31,36,25.19,36s40.84-16.12,46.81-36L699.6,216h144c19.88,0,40.84-16.12,46.81-36L933.64,36C939.61,16.12,928.33,0,908.45,0Z"/><path d="M584.45,0c-19.88,0-40.84,16.12-46.81,36L516,108c-6,19.88-26.92,36-46.8,36H392.39c-3-10.76-12.45-18-25.77-18S339.5,133.24,330,144H289.22L321.64,36c6-19.88-5.31-36-25.19-36s-40.84,16.12-46.81,36L217.22,144h-72C85.57,144,22.7,192.35,4.79,252S20.72,360,80.37,360h36c59.64,0,122.51-48.35,140.42-108l10.81-36h36L271.18,324c-6,19.88,5.31,36,25.19,36s40.84-16.12,46.81-36L375.6,216h144c19.88,0,40.84-16.12,46.81-36L609.64,36C615.61,16.12,604.33,0,584.45,0ZM184.79,252c-6,19.88-26.92,36-46.81,36H102c-19.88,0-31.16-16.12-25.19-36s26.93-36,46.81-36h72Z"/></g></g></svg>