<?xml version="1.0" encoding="UTF-8"?><svg id="Camada_1" xmlns="http://www.w3.org/2000/svg" viewBox="0 0 1224 360"><path fill="#FFFFFF" d="M175.2,360H31.2v-10.21h-10.23v-10.23c-3.58-.31-6.91,.11-10.44-.29v-9.98H0v-102.72c3.49-.05,6.98-.1,10.49-.16,.39-3.56-.12-6.9,.34-10.4h10.15c.16-6.95-.07-13.69,.14-20.68h10.28v-10.2h9.99v-10.03h10.29c.2-3.6-.08-6.92,.2-10.45h20.56v-10.15c2.48,0,4.71,0,6.93,0s4.64,.02,6.96,0c2.2-.03,4.41,.14,6.53-.11v-10.37h-10.06V72.15c3.46-.2,6.79,.09,10.22-.19,.02-10.39,0-20.5,.02-30.86h10.23v-6.95c0-2.24-.02-4.48,0-6.72,.03-2.2-.14-4.41,.15-6.82h10.02V10.62c3.55-.39,6.9,.14,10.39-.35V0h51.36c.05,3.41,.1,6.82,.16,10.55h10c0,13.79,0,27.27,0,40.97h-10.08c0,5.33,0,10.43,0,15.53,0,5.08,.02,10.16-.02,15.5h-10.28v30.68h-10.38v20.6h-10.01v10.08h71.84v-30.75h10.26v-40.96c3.58-.32,6.92,.12,10.31-.28,.1-10.36-.05-20.48,.08-30.83h10.24V20.69h10.11V10.62c3.55-.39,6.89,.14,10.39-.35V0h51.36c.05,3.41,.1,6.82,.16,10.55h9.85c.45,5.52,.26,38.96-.27,40.98h-9.65v10.5c0,3.36,0,6.72,0,10.08,0,3.4,.03,6.81-.03,10.46h-10.29v40.8c-3.55,.23-6.89-.11-10.15,.22v20.38h30.55v-10.13h10.47v-10.2h51.32c.33,3.47-.12,6.82,.3,10.33h9.98v10h61.84v-10.15h30.58c.35-3.62-.11-6.96,.32-10.46h10.25v-20.25h10.26v-30.89c3.59-.33,6.92,.12,10.33-.29,.05-10.36-.03-20.47,.05-30.83h10.21v-6.95c0-2.24-.02-4.48,0-6.72,.03-2.2-.14-4.41,.14-6.81h10.02V10.62c3.55-.39,6.9,.14,10.39-.35V0h51.36c.05,3.41,.1,6.82,.16,10.55h9.85c.45,5.45,.26,38.96-.27,40.97h-9.66c0,5.33,0,10.43,0,15.53,0,5.08,.02,10.16-.02,15.5h-10.3v40.73c-3.54,.39-6.89-.11-10.38,.34v30.85h-10.18v10.26c0,3.44,0,6.88,0,10.32,0,3.33,.03,6.65-.03,10.08-3.63,.2-6.96-.09-10.49,.21v20.58h-10.2v10.19h-174.67v20.46c-3.61,.39-6.96-.13-10.46,.35v40.93h-10.17v30.9h-10.39v15.37c0,2.56,.01,5.12,0,7.68-.02,2.52,.09,5.05-.09,7.71h-10.15v10.39h-10.47v10.1h-61.44c-.03-.32-.07-.64-.07-.96,0-19.59,0-39.18,0-58.78,0-.53,.1-1.07,.18-1.84h10.13v-30.87c3.58-.32,6.92,.12,10.33-.3v-20.38c0-3.44,0-6.88,0-10.32,0-3.32,.03-6.64,.05-10.2h10.06v-9.98c-2.63-.49-18.61-.4-20.55,.15v10.02h-10.32v30.54c-3.52,.32-6.85-.12-10.37,.29v20.5h-10.05v20.7h-10.27v10c-3.55,.38-6.89-.13-10.39,.34v10.22h-10.24v10.12h-10.31v10.17h-10.26v10.47h-20.55v10.1Zm-10.12-82.15v-10.46h10.25v-20.28h9.88v-30.76c-3.09-.51-49.39-.37-51.27,.19v9.93h-15.26c-2.56,0-5.12-.02-7.68,0-2.52,.03-5.05-.14-7.81,.15v10.18h-10c-.41,3.54,.15,6.89-.37,10.39h-9.9c-.53,3.28-.38,28.84,.21,30.73h20.21v9.9c3.45,.49,28.92,.34,30.8-.23v-9.75h30.93Z"/><path fill="#FFFFFF" d="M597.12,360v-10.1h-10.32v-30.72h10.17v-41.25h10.06c.48-2.76,.2-5.3,.24-7.82,.05-2.56,.01-5.12,.01-7.68v-15.29h9.91v-31.05h-20.02v-51.28h10.01v-10.27h10.12v-10.39c5.29-.14,10.37-.05,15.46-.07,5.11-.02,10.21,0,15.57,0v-10.18h10.26v-10.31h61.65c.32,2.17,.11,4.39,.15,6.59,.04,2.32,0,4.64,0,6.96v6.8h71.89v-10.05h20.68v-10.32h10.19v-10.17c3.44-.46,6.7,.03,10.12-.33v-20.16c3.5-.44,6.84,.04,10.39-.32v-30.65h10.26c.15-2.92,.06-5.61,.07-8.29,.02-2.72,0-5.44,0-8.16V20.75h10.39V10.49h10.17V0C895.2,0,915.84,0,936.48,0c-.03,.96-.08,1.92-.08,2.88,0,22,0,44,0,66v3.15h-10.39v31.03h-10.16c-.16,2.67-.07,5.2-.08,7.72-.02,2.56,0,5.12,0,7.68v15.37h-10.38v41.23h-9.99v20.29h-10.17c-.43,3.54,.03,6.88-.31,10.46h-10.25v10.24h-164.59v10.4h-10.24v30.6c-3.52,.35-6.86,0-10.41,.25v30.71h-10.08c-.02,3.63-.04,7.03-.05,10.43,0,3.36,0,6.72,0,10.08v20.62h-10.14v20.57c-3.52,.3-6.85,.01-10.41,.2-.05,3.44-.11,6.76-.16,10.09h-61.44Z"/><path fill="#FFFFFF" d="M885.12,360v-10.1h-10.32v-30.73h10.18v-20.61h10.24v-10.4h102.69v-10.18c2.76-.27,5.29-.11,7.81-.14,2.56-.03,5.12,0,7.68,0h15.61v-10.39h10.27v-20.28h10.04v-31.01h9.83c.28-.28,.33-.33,.39-.39,.05-.06,.14-.12,.14-.19,.04-.32,.09-.63,.09-.95,.03-12.96,.05-25.92,.07-38.87,0-.08,.03-.15,.13-.57h10.03v-20.6h10.24c.38-3.5,0-6.84,.25-10.32h61.46v10.21h10.34v30.73h-10.27v41.24h-10.18v30.6c-3.52,.35-6.86,0-10.41,.25v30.71h-10.08c-.02,3.63-.04,7.03-.05,10.43,0,3.36,0,6.72,0,10.08v10.32c0,3.35,0,6.7,0,10.3h-10.14v20.51c-3.51,.47-6.86-.04-10.42,.34-.05,3.36-.11,6.69-.16,10.02h-205.44Z"/><path fill="#FFFFFF" d="M1183.2,0V10.29c3.4,.44,6.66-.02,10.01,.31V51.35h-9.75c-.43,3.51,.04,6.86-.33,10.41h-10.01v10.19c-5.89,.28-11.54,.09-17.17,.13-5.76,.03-11.52,0-17.28,0h-51.35c-5.66,0-11.32,0-17.29,0v10.36h-30.68v10.2h-10.27v30.76h-10.37v31.02h-10.24v30.59c-3.51,.44-6.86-.04-10.39,.33v20.35h-10.27v10.25h-61.7v-10h-9.85c-.6-1.92-.75-17.12-.25-20.72h9.96v-41.09h10.34c.21-10.33,0-20.44,.13-30.82h10.1c.2-2.92,.08-5.6,.1-8.28,.02-2.72,0-5.44,0-8.16v-24.74h10.35v-30.9h10.25V20.77h10.05V10.54h10.39c.06-3.71,.11-7.12,.16-10.54,65.12,0,130.24,0,195.36,0Z"/><path fill="#FFFFFF" d="M741.12,360v-10.1h-10.32v-30.71h10.15v-41.24h10.23c.22-3.54,0-6.86,.15-10.39h9.97v-10.32h10.4v-9.99h51.54v20.1h10.06c.12,6.98,.04,13.71,.06,20.68h-10.04c-.08,6.99-.03,13.75-.04,20.51,0,6.78,0,13.56,0,20.6h-10.15v20.51c-3.51,.44-6.86-.04-10.41,.33-.05,3.36-.11,6.68-.16,10.01h-61.44Z"/><path fill="#FFFFFF" d="M411.84,360c-.03-.72-.08-1.44-.08-2.16,0-18.88,0-37.75,0-56.63,0-.79,0-1.58,0-2.63h10.1c.27-2.76,.11-5.29,.14-7.81,.03-2.56,0-5.12,0-7.68v-15.61h10.38v-10.24h20.53v-9.64c1.91-.57,37.91-.7,41.06-.17v9.74h10.28v51.56h-10.2c-.12,5.23-.04,10.32-.06,15.4-.01,5.02,0,10.04,0,15.31h-10.16v10.22c-3.5,.47-6.85-.04-10.4,.34l-.16,10.01h-61.44Z"/><path fill="#FFFFFF" d="M1131.84,360c-.03-.64-.08-1.28-.08-1.91,0-19.02,0-38.04,0-57.06,0-.71,0-1.43,0-2.48h10.19v-30.95c3.49-.35,6.82-.01,10.37-.23v-10.13h20.68v-9.95h40.95v9.84c3.56,.06,6.81,.11,10.06,.16v51.36c-3.25,.05-6.49,.1-10.02,.16v30.69h-10.27v10.26c-3.58,.27-6.9-.11-10.43,.27v9.99h-61.44Z"/><path fill="#FFFFFF" d="M339.89,103.19V61.84h10.07v-20.53h20.44c.56-3.42,0-6.69,.36-10.03h112.96v9.85h10.11v51.48h-9.97c-.23,3.54,0,6.86-.16,10.46h-10.29v9.96h-123.36v-9.84h-10.16Z"/></svg>